<svg xmlns="http://www.w3.org/2000/svg" xmlns:xlink="http://www.w3.org/1999/xlink" width="237" height="52" viewBox="0 0 237 52">
  <defs>
    <clipPath id="clip-path">
      <circle id="Ellipse_15" data-name="Ellipse 15" cx="26" cy="26" r="26"/>
    </clipPath>
    <clipPath id="clip-logo-filled-vertical">
      <rect width="237" height="52"/>
    </clipPath>
  </defs>
  <g id="logo-filled-vertical" clip-path="url(#clip-logo-filled-vertical)">
    <rect width="237" height="52" fill="#fff"/>
    <g id="Group_190" data-name="Group 190" transform="translate(627 -417)">
      <g id="logo-icon-03" transform="translate(-1110.417 416.249)">
        <circle id="Ellipse_14" data-name="Ellipse 14" cx="26" cy="26" r="26" transform="translate(483.417 0.751)" fill="#ef3024"/>
        <g id="Group_20" data-name="Group 20" transform="translate(483.417 0.751)">
          <g id="Group_19" data-name="Group 19" transform="translate(0 0)" clip-path="url(#clip-path)">
            <path id="Path_16" data-name="Path 16" d="M509.115,92.85h7.528v2.509h-7.528Z" transform="translate(-502.21 -68.105)" fill="#fff"/>
            <path id="Path_17" data-name="Path 17" d="M478.175,58.346h-7.057V59.6a1.254,1.254,0,0,1-1.254,1.255H459.827a1.255,1.255,0,0,1-1.255-1.255V58.346h-7.057a3.76,3.76,0,0,1-3.571-2.573l-4.51-13.535v27.4A3.768,3.768,0,0,0,447.2,73.4h35.295a3.768,3.768,0,0,0,3.764-3.764v-27.4l-4.512,13.534A3.759,3.759,0,0,1,478.175,58.346Z" transform="translate(-454.177 -31.091)" fill="#fff"/>
            <path id="Path_18" data-name="Path 18" d="M451.467,36.817l4.731,14.2a1.255,1.255,0,0,0,1.191.857h7.057V50.618a1.254,1.254,0,0,1,1.255-1.254h10.037a1.254,1.254,0,0,1,1.254,1.254v1.254h7.057a1.253,1.253,0,0,0,1.191-.857l4.732-14.2Z" transform="translate(-460.051 -27.127)" fill="#fff"/>
          </g>
        </g>
      </g>
      <g id="Group_21" data-name="Group 21" transform="translate(-1588 -216)">
        <text id="JOB_ORDER" data-name="JOB ORDER" transform="translate(1030 665)" fill="#111" font-size="30" font-family="Poppins-Bold, Poppins" font-weight="700"><tspan x="0" y="0">JOB ORDER</tspan></text>
        <text id="PORTAL" transform="translate(1162 680)" fill="#858585" font-size="10" font-family="Poppins-Regular, Poppins"><tspan x="0" y="0">PORTAL</tspan></text>
      </g>
    </g>
  </g>
</svg>
